<svg version="1.1" id="Layer_1" xmlns="http://www.w3.org/2000/svg" xmlns:xlink="http://www.w3.org/1999/xlink" x="0px" y="0px"
	 width="100%" viewBox="0 0 496 512" enable-background="new 0 0 496 512" xml:space="preserve">
<circle cx="248" cy="256" r="245" fill="lightblue" />
<path fill="#000000" opacity="1.000000" stroke="none" 
	d="
M239.468658,513.000000 
	C232.594666,512.095703 226.169266,511.313354 219.787781,510.264069 
	C201.339935,507.230835 183.251617,503.036346 166.849304,493.496735 
	C146.241272,481.510986 132.153214,464.318481 125.344551,441.393799 
	C123.626740,435.609955 124.080269,429.524719 123.647972,423.556274 
	C121.955917,400.195221 128.171814,379.084259 140.981491,359.697968 
	C142.538513,357.341553 143.820419,354.800903 145.186829,352.321930 
	C146.082352,350.697266 147.145432,349.239441 148.638443,348.103271 
	C153.043732,344.750793 157.647537,344.673981 160.876068,347.926147 
	C163.179367,350.246307 162.902557,355.913452 160.118912,359.489349 
	C154.063095,367.268768 148.389343,375.304626 145.234406,384.735260 
	C139.447830,402.032318 137.068268,419.506683 141.557510,437.673401 
	C146.301025,456.869019 158.812698,469.904510 174.913849,479.367249 
	C188.086456,487.108887 202.886795,491.808014 218.006577,494.443909 
	C234.225845,497.271484 250.603592,499.350922 267.148651,498.848846 
	C294.302185,498.024902 320.723785,493.173584 344.181213,479.066040 
	C362.343536,468.143005 375.365692,452.172089 380.010712,430.707062 
	C384.744812,408.830414 381.463287,387.712097 373.345093,367.158936 
	C369.064392,356.321259 364.353912,345.702576 357.546600,336.124969 
	C346.034363,319.927826 333.022400,305.144928 317.419189,292.739380 
	C314.004333,290.024353 313.555145,285.992310 316.059052,282.070648 
	C317.735809,279.444489 320.333130,277.876617 322.825775,276.244141 
	C332.619232,269.830322 339.296295,260.610687 344.514191,250.549362 
	C350.525269,238.958679 349.427399,226.659592 344.899017,214.772110 
	C339.021362,199.342667 330.225189,185.932465 317.869446,174.640289 
	C309.709259,167.182541 301.053345,160.624710 291.828888,154.656799 
	C289.183350,152.945221 287.412323,153.156326 285.442749,155.558563 
	C281.868591,159.917816 278.541565,164.631805 274.700226,168.584854 
	C264.088135,179.505524 253.326767,190.271591 239.784012,198.006882 
	C228.949509,204.195297 218.659195,211.538513 206.564575,214.865265 
	C195.883118,217.803299 185.095047,220.843887 173.855026,221.209381 
	C169.728577,221.343567 166.358276,220.067917 165.807510,215.573898 
	C165.254196,211.059097 167.879578,208.506165 172.181091,207.426544 
	C182.648544,204.799301 193.163727,202.533112 203.488785,199.146149 
	C222.333740,192.964371 238.033859,181.898773 252.431580,169.025604 
	C268.743195,154.441238 280.798828,136.414551 289.260437,116.236000 
	C292.197449,109.232185 293.419159,101.525482 295.719360,94.232880 
	C297.454041,88.733109 302.560730,86.609268 307.651550,88.773636 
	C311.232941,90.296257 312.498016,93.083481 312.352844,96.766090 
	C312.010559,105.448601 308.505768,113.228363 305.284729,121.056473 
	C303.387177,125.668007 301.180420,130.170685 298.827026,134.569427 
	C297.401642,137.233505 297.948730,138.801117 300.409607,140.310730 
	C315.120880,149.335312 327.649872,160.837570 339.140839,173.678986 
	C350.516937,186.392075 357.920105,201.120987 362.252380,217.354858 
	C367.001678,235.151337 362.963562,251.518784 352.895203,266.784332 
	C348.705658,273.136444 343.494751,278.401947 338.030579,283.483887 
	C334.874573,286.419128 335.711914,288.120056 338.652557,290.558502 
	C350.985809,300.785461 361.280701,312.743988 369.982361,326.290924 
	C376.206238,335.980347 382.613800,345.613190 386.728973,356.280487 
	C395.549835,379.145477 401.289368,402.789001 396.762817,427.483917 
	C393.544220,445.043091 386.389282,460.900482 373.820770,474.209900 
	C363.632782,484.998505 352.307617,494.232422 338.796143,500.012512 
	C324.126801,506.287903 308.662567,510.437592 292.626923,511.897614 
	C290.976135,512.047913 289.342804,512.390076 287.350708,512.821655 
	C271.312439,513.000000 255.624878,513.000000 239.468658,513.000000 
z"/>
<path fill="#000000" opacity="1.000000" stroke="none" 
	d="
M312.102356,412.482788 
	C311.571869,414.976379 309.197144,415.647705 308.428314,417.696960 
	C309.530670,420.416656 312.246033,421.678162 314.189911,423.638306 
	C318.013184,427.493652 318.225433,431.442352 314.621643,435.453949 
	C312.006104,438.365448 308.696014,440.375153 305.191406,441.849365 
	C290.441345,448.053986 277.311279,457.262817 263.043884,464.322205 
	C256.783051,467.419983 250.843155,471.030762 244.735779,474.365784 
	C241.135834,476.331635 239.436646,475.068665 239.841034,471.454559 
	C240.622971,464.466187 239.757553,457.774170 238.792099,450.812744 
	C237.095657,438.580292 247.466736,430.682892 260.302277,433.134827 
	C261.747253,433.410858 263.156006,433.876373 264.405151,434.207306 
	C265.820038,433.619110 265.645691,432.524902 265.718719,431.562653 
	C266.553650,420.562286 275.157135,413.284119 286.097778,415.007935 
	C290.027832,415.627136 292.003967,415.336212 293.605103,411.290192 
	C295.558258,406.354736 305.134979,403.652893 309.780945,406.085876 
	C312.294403,407.402100 312.477997,409.654022 312.102356,412.482788 
M289.406433,427.253326 
	C288.520386,426.519226 287.741241,425.544250 286.728790,425.095062 
	C283.345184,423.593964 279.821747,423.347565 277.042816,426.133270 
	C274.263428,428.919464 274.443695,432.657471 275.980804,435.849121 
	C277.556732,439.121246 280.831024,440.186676 284.433624,439.702209 
	C289.855560,438.973053 292.002869,434.230865 289.406433,427.253326 
M248.280838,447.019440 
	C248.256714,448.010132 248.205887,449.001068 248.213318,449.991516 
	C248.239838,453.528320 250.504150,455.419525 253.459198,456.416351 
	C256.329712,457.384705 259.108063,456.598724 261.203491,454.412292 
	C263.403931,452.116180 263.313293,449.146637 262.203308,446.508148 
	C261.152374,444.010010 259.086823,442.369415 256.072662,442.167572 
	C252.604095,441.935272 249.865433,442.791077 248.280838,447.019440 
z"/>
<path fill="#000000" opacity="1.000000" stroke="none" 
	d="
M231.553284,343.025635 
	C235.558167,340.834412 237.673141,337.065826 240.785782,334.325745 
	C243.290863,332.120514 245.822952,329.910706 249.151810,329.047943 
	C252.158127,328.268768 254.935883,328.809143 256.537292,331.667938 
	C258.032654,334.337341 256.521240,336.621796 254.532852,338.245422 
	C250.286255,341.713043 245.973343,345.132568 241.440613,348.207794 
	C236.452545,351.591980 231.977249,355.569946 227.716644,359.737305 
	C223.630966,363.733490 223.782623,369.442261 223.337814,374.664185 
	C223.134781,377.047729 225.355148,376.845856 227.044083,376.255249 
	C230.024673,375.212891 233.037277,374.224884 235.923615,372.957184 
	C244.448380,369.213013 253.443481,366.702789 261.888519,362.702271 
	C267.212280,360.180328 271.050903,362.302643 272.767120,367.736023 
	C274.000153,371.639679 271.963654,374.836884 266.626343,376.229462 
	C250.167221,380.523865 234.570953,387.280273 218.666183,393.106873 
	C211.542587,395.716522 208.879028,392.899445 210.006241,386.063416 
	C211.762817,375.410431 213.680450,364.783630 215.383606,354.122375 
	C216.954941,344.286224 218.318344,334.416992 219.814209,324.568512 
	C220.037445,323.098846 220.294159,321.582733 220.866272,320.227844 
	C222.254822,316.939453 224.741379,315.115601 228.387451,316.080566 
	C232.007004,317.038605 233.410202,319.944397 233.004608,323.379852 
	C232.538651,327.326569 231.413757,331.190887 230.764526,335.122253 
	C230.327469,337.768921 228.964645,340.549438 231.553284,343.025635 
z"/>
<path fill="#000000" opacity="1.000000" stroke="none" 
	d="
M341.437531,48.917782 
	C343.150879,59.748024 336.317993,73.377968 327.004730,78.344315 
	C315.381531,84.542450 303.312805,82.284943 295.214783,74.297836 
	C287.561829,66.749756 283.963470,53.963810 289.626465,40.725498 
	C296.363068,24.977467 316.918732,22.428589 327.718384,28.970739 
	C335.019745,33.393730 339.026123,40.442352 341.437531,48.917782 
M317.480286,41.587391 
	C316.171509,41.417286 314.864319,41.114716 313.553711,41.099354 
	C306.862946,41.020901 301.448456,46.085503 301.487152,52.306938 
	C301.528564,58.972397 307.099121,64.549896 313.835327,64.670517 
	C321.210815,64.802582 325.491211,60.370911 325.786560,53.022980 
	C326.020386,47.205368 322.682953,44.286049 317.480286,41.587391 
z"/>
<path fill="#000000" opacity="1.000000" stroke="none" 
	d="
M266.241730,257.642395 
	C258.955170,248.286469 261.192169,237.284256 266.989349,229.609772 
	C271.558899,223.560501 277.817627,220.119492 285.596832,221.086700 
	C294.395538,222.180649 299.958984,228.048538 303.268250,235.632568 
	C309.890015,250.808304 296.203613,269.300385 281.189606,267.214508 
	C274.819611,266.329529 270.261200,262.783813 266.241730,257.642395 
z"/>
<path fill="#000000" opacity="1.000000" stroke="none" 
	d="
M227.576508,223.171082 
	C242.645187,230.050613 242.248734,256.098572 229.375854,263.770721 
	C216.382828,271.514526 200.611221,265.048157 197.748032,250.186752 
	C195.331543,237.644043 202.487762,219.917267 219.138474,220.819946 
	C222.050797,220.977829 224.682724,221.727448 227.576508,223.171082 
z"/>
</svg>